<svg version="1.1" id="PK_app_logo" class='PK_app_logo' xmlns="http://www.w3.org/2000/svg" xmlns:xlink="http://www.w3.org/1999/xlink" x="0px"
	 y="0px" viewBox="0 0 138.24 48.72" style="enable-background:new 0 0 138.24 48.72;" xml:space="preserve">
<style type="text/css">
	.PK_app_logo-color-primary{fill:#ffffff;}
	.PK_app_logo-color-neutral{fill:#000000;}
</style>
<g id="PK_app_logo-icon">
	<g>
		<path class="PK_app_logo-color-primary" d="M73.31,9.52C71.36,3.97,66.08,0,59.87,0C52,0,45.6,6.4,45.6,14.28S52,28.56,59.87,28.56
			c6.21,0,11.49-3.97,13.44-9.52h10.34v9.52h9.51v-9.52h4.76V9.52H73.31z M59.87,19.04c-2.62,0-4.76-2.14-4.76-4.76
			s2.14-4.76,4.76-4.76c2.62,0,4.76,2.14,4.76,4.76S62.49,19.04,59.87,19.04z"/>
	</g>
</g>
<g id="PK_app_logo-text">
	<g>
		<path class="PK_app_logo-color-neutral" d="M12.63,32.67c-0.58-0.35-1.36-0.53-2.33-0.53H6.28v16.2h2.26V40.8h1.78c0.88,0,1.61-0.17,2.2-0.51
			c0.59-0.34,1.03-0.82,1.33-1.45c0.3-0.63,0.45-1.37,0.45-2.22c0-0.95-0.13-1.75-0.4-2.42C13.63,33.53,13.21,33.02,12.63,32.67z
			 M11.92,38.19c-0.16,0.37-0.43,0.62-0.8,0.77c-0.37,0.15-0.89,0.22-1.54,0.22H8.54v-5.42H9.6c0.76,0,1.32,0.08,1.68,0.24
			c0.36,0.16,0.6,0.45,0.71,0.86c0.11,0.41,0.17,1.01,0.17,1.78C12.16,37.3,12.08,37.82,11.92,38.19z M22.19,46.6
			c-0.02-0.33-0.03-0.68-0.03-1.04v-5.28c0-1.19-0.24-2.09-0.72-2.72c-0.48-0.63-1.29-0.94-2.44-0.94c-1.17,0-2.04,0.3-2.6,0.91
			c-0.56,0.61-0.85,1.55-0.88,2.83l2.12,0.08v-0.58c0-0.33,0.04-0.62,0.12-0.87c0.08-0.25,0.21-0.44,0.39-0.57
			c0.18-0.13,0.42-0.2,0.71-0.2c0.33,0,0.58,0.08,0.75,0.23c0.17,0.15,0.28,0.38,0.33,0.69c0.05,0.31,0.08,0.69,0.08,1.16v0.82
			c-0.61,0.24-1.2,0.49-1.75,0.74c-0.55,0.25-1.04,0.55-1.46,0.89c-0.42,0.34-0.75,0.76-0.99,1.25c-0.24,0.49-0.36,1.1-0.36,1.82
			c0,0.45,0.1,0.88,0.3,1.29c0.2,0.41,0.47,0.74,0.82,1c0.35,0.26,0.75,0.39,1.2,0.39c0.67,0,1.19-0.2,1.57-0.59
			c0.38-0.39,0.64-0.82,0.77-1.27c0.03,0.27,0.07,0.56,0.13,0.89c0.06,0.33,0.11,0.6,0.15,0.81h1.96c-0.03-0.25-0.06-0.52-0.09-0.81
			C22.24,47.24,22.21,46.93,22.19,46.6z M20.02,45.7c-0.05,0.09-0.15,0.22-0.3,0.37c-0.15,0.15-0.31,0.29-0.5,0.41
			c-0.19,0.12-0.39,0.18-0.6,0.18c-0.33,0-0.59-0.13-0.76-0.4c-0.17-0.27-0.26-0.63-0.26-1.1c0-0.33,0.06-0.63,0.19-0.89
			c0.13-0.26,0.3-0.49,0.52-0.7c0.22-0.21,0.48-0.4,0.77-0.59c0.29-0.19,0.61-0.37,0.94-0.56V45.7z M29.25,43.24
			c-0.25-0.29-0.51-0.57-0.79-0.82l-2.04-1.88c-0.21-0.19-0.36-0.38-0.45-0.57c-0.09-0.19-0.13-0.39-0.13-0.59
			c0-0.32,0.1-0.6,0.31-0.83c0.21-0.23,0.48-0.35,0.83-0.35c0.31,0,0.55,0.08,0.74,0.25c0.19,0.17,0.33,0.4,0.44,0.7
			c0.11,0.3,0.19,0.65,0.24,1.05l1.44-0.54c-0.07-0.84-0.34-1.56-0.83-2.15c-0.49-0.59-1.19-0.89-2.11-0.89
			c-0.6,0-1.12,0.11-1.57,0.33c-0.45,0.22-0.79,0.54-1.04,0.96c-0.25,0.42-0.37,0.94-0.37,1.55c0,0.68,0.14,1.23,0.41,1.66
			c0.27,0.43,0.61,0.81,1.01,1.16l1.98,1.7c0.33,0.28,0.57,0.55,0.72,0.82c0.15,0.27,0.22,0.57,0.22,0.9c0,0.37-0.1,0.67-0.3,0.89
			c-0.2,0.22-0.49,0.33-0.88,0.33c-0.49,0-0.87-0.18-1.12-0.55c-0.25-0.37-0.43-0.92-0.54-1.65l-1.78,0.54
			c0.08,0.97,0.41,1.76,0.98,2.35c0.57,0.59,1.33,0.89,2.28,0.89c0.64,0,1.2-0.11,1.68-0.33c0.48-0.22,0.85-0.55,1.12-0.99
			c0.27-0.44,0.4-0.99,0.4-1.64c0-0.49-0.08-0.93-0.24-1.3C29.7,43.86,29.5,43.53,29.25,43.24z M36.73,43.24
			c-0.25-0.29-0.51-0.57-0.79-0.82l-2.04-1.88c-0.21-0.19-0.36-0.38-0.45-0.57c-0.09-0.19-0.13-0.39-0.13-0.59
			c0-0.32,0.1-0.6,0.31-0.83c0.21-0.23,0.48-0.35,0.83-0.35c0.31,0,0.55,0.08,0.74,0.25c0.19,0.17,0.33,0.4,0.44,0.7
			c0.11,0.3,0.19,0.65,0.24,1.05l1.44-0.54c-0.07-0.84-0.34-1.56-0.83-2.15c-0.49-0.59-1.19-0.89-2.11-0.89
			c-0.6,0-1.12,0.11-1.57,0.33c-0.45,0.22-0.79,0.54-1.04,0.96c-0.25,0.42-0.37,0.94-0.37,1.55c0,0.68,0.14,1.23,0.41,1.66
			c0.27,0.43,0.61,0.81,1.01,1.16l1.98,1.7c0.33,0.28,0.57,0.55,0.72,0.82c0.15,0.27,0.22,0.57,0.22,0.9c0,0.37-0.1,0.67-0.3,0.89
			c-0.2,0.22-0.49,0.33-0.88,0.33c-0.49,0-0.87-0.18-1.12-0.55c-0.25-0.37-0.43-0.92-0.54-1.65l-1.78,0.54
			c0.08,0.97,0.41,1.76,0.98,2.35c0.57,0.59,1.33,0.89,2.28,0.89c0.64,0,1.2-0.11,1.68-0.33c0.48-0.22,0.85-0.55,1.12-0.99
			c0.27-0.44,0.4-0.99,0.4-1.64c0-0.49-0.08-0.93-0.24-1.3C37.18,43.86,36.98,43.53,36.73,43.24z M46.34,45.26l-1.54-8.48h-1.64
			l-1.54,8.52l-1.2-8.52h-1.76l1.86,11.56h1.92L44,40.18l1.58,8.16h1.8l1.92-11.56h-1.76L46.34,45.26z M56.13,37.14
			c-0.49-0.35-1.16-0.52-2.01-0.52c-0.85,0-1.53,0.17-2.02,0.52c-0.49,0.35-0.84,0.84-1.05,1.48c-0.21,0.64-0.31,1.39-0.31,2.26
			v3.36c0,0.87,0.1,1.62,0.31,2.26c0.21,0.64,0.56,1.13,1.05,1.48c0.49,0.35,1.17,0.52,2.02,0.52c0.85,0,1.52-0.17,2.01-0.52
			c0.49-0.35,0.83-0.84,1.04-1.48c0.21-0.64,0.31-1.39,0.31-2.26v-3.36c0-0.87-0.1-1.62-0.31-2.26
			C56.96,37.98,56.62,37.48,56.13,37.14z M55.34,44.38c0,0.43-0.02,0.84-0.05,1.23c-0.03,0.39-0.13,0.71-0.3,0.95
			c-0.17,0.24-0.46,0.36-0.87,0.36c-0.41,0-0.71-0.12-0.88-0.36c-0.17-0.24-0.28-0.56-0.31-0.95c-0.03-0.39-0.05-0.8-0.05-1.23
			v-3.62c0-0.44,0.02-0.85,0.05-1.24c0.03-0.39,0.14-0.7,0.31-0.95c0.17-0.25,0.47-0.37,0.88-0.37c0.41,0,0.7,0.12,0.87,0.37
			c0.17,0.25,0.27,0.56,0.3,0.95c0.03,0.39,0.05,0.8,0.05,1.24V44.38z M64.2,36.64c-0.43,0-0.85,0.12-1.28,0.36
			c-0.43,0.24-0.85,0.71-1.28,1.42v-1.64H59.5v11.56h2.14V39.9c0.27-0.44,0.54-0.74,0.81-0.89c0.27-0.15,0.58-0.23,0.91-0.23
			c0.21,0,0.42,0.02,0.63,0.07c0.21,0.05,0.39,0.1,0.55,0.17v-2.36c-0.08-0.01-0.14-0.02-0.19-0.02
			C64.3,36.64,64.25,36.64,64.2,36.64z M70.4,37.52c-0.25-0.25-0.54-0.47-0.86-0.64c-0.32-0.17-0.67-0.26-1.06-0.26
			c-0.79,0-1.38,0.23-1.79,0.68c-0.41,0.45-0.68,1.06-0.83,1.81c-0.15,0.75-0.22,1.57-0.22,2.45v2.24c0,1.71,0.24,2.92,0.72,3.63
			c0.48,0.71,1.21,1.07,2.18,1.07c0.39,0,0.73-0.08,1.03-0.25c0.3-0.17,0.58-0.38,0.83-0.65v0.74h2.14v-16.2H70.4V37.52z
			 M70.4,46.38c-0.23,0.15-0.45,0.26-0.68,0.33c-0.23,0.07-0.44,0.11-0.64,0.11c-0.37,0-0.65-0.12-0.84-0.37
			c-0.19-0.25-0.31-0.59-0.37-1.02c-0.06-0.43-0.09-0.92-0.09-1.45v-3.26c0-0.67,0.09-1.24,0.26-1.71c0.17-0.47,0.51-0.71,1-0.71
			c0.27,0,0.51,0.05,0.74,0.15c0.23,0.1,0.43,0.22,0.62,0.35V46.38z M78.88,41.46h2.58v2.38c0,0.79-0.08,1.47-0.23,2.04
			c-0.15,0.57-0.43,1.01-0.82,1.32c-0.39,0.31-0.95,0.46-1.67,0.46c-0.76,0-1.35-0.16-1.76-0.48c-0.41-0.32-0.7-0.77-0.86-1.35
			c-0.16-0.58-0.24-1.26-0.24-2.05v-7.06c0-0.76,0.07-1.43,0.21-2.01c0.14-0.58,0.42-1.03,0.83-1.36c0.41-0.33,1.01-0.49,1.8-0.49
			c0.71,0,1.25,0.14,1.64,0.42c0.39,0.28,0.66,0.69,0.82,1.23c0.16,0.54,0.24,1.21,0.24,2.01v0.62h1.04v-0.56
			c0-0.95-0.12-1.77-0.35-2.46c-0.23-0.69-0.62-1.23-1.16-1.6c-0.54-0.37-1.28-0.56-2.23-0.56c-1.04,0-1.85,0.2-2.42,0.61
			c-0.57,0.41-0.97,0.97-1.19,1.69c-0.22,0.72-0.33,1.55-0.33,2.5v6.88c0,0.95,0.11,1.79,0.33,2.54c0.22,0.75,0.61,1.33,1.17,1.75
			c0.56,0.42,1.35,0.63,2.38,0.63c0.85,0,1.51-0.18,1.97-0.55c0.46-0.37,0.79-0.86,0.99-1.49l0.16,1.82h0.7v-7.72h-3.6V41.46z
			 M89.4,37.06c-0.41-0.31-0.98-0.46-1.7-0.46c-0.6,0-1.12,0.11-1.57,0.34c-0.45,0.23-0.79,0.65-1.03,1.28
			c-0.24,0.63-0.36,1.55-0.36,2.76v3.08c0,1.19,0.12,2.1,0.35,2.75c0.23,0.65,0.57,1.09,1.01,1.34s0.97,0.37,1.58,0.37
			c1.09,0,1.84-0.31,2.25-0.92c0.41-0.61,0.61-1.41,0.61-2.4v-0.76H89.5v0.86c0,0.73-0.09,1.27-0.28,1.62
			c-0.19,0.35-0.42,0.57-0.7,0.66c-0.28,0.09-0.56,0.14-0.84,0.14c-0.44,0-0.8-0.11-1.08-0.32c-0.28-0.21-0.48-0.58-0.61-1.1
			c-0.13-0.52-0.19-1.24-0.19-2.16V42.3h4.74v-1.1c0-1.11-0.09-2-0.26-2.67C90.11,37.85,89.81,37.36,89.4,37.06z M89.5,41.66h-3.7
			v-0.88c0-0.92,0.07-1.62,0.2-2.11c0.13-0.49,0.34-0.82,0.63-1c0.29-0.18,0.64-0.27,1.07-0.27c0.55,0,0.95,0.14,1.2,0.41
			c0.25,0.27,0.42,0.66,0.49,1.16c0.07,0.5,0.11,1.1,0.11,1.79V41.66z M97.27,36.85c-0.27-0.17-0.58-0.25-0.93-0.25
			c-0.53,0-1.03,0.13-1.5,0.39c-0.47,0.26-0.88,0.6-1.24,1.03v-1.24h-1.06v11.56h1.06V38.7c0.35-0.39,0.72-0.7,1.11-0.93
			c0.39-0.23,0.78-0.35,1.17-0.35c0.37,0,0.67,0.13,0.89,0.38c0.22,0.25,0.33,0.73,0.33,1.44v9.1h1.06v-9.22
			c0-0.61-0.08-1.1-0.24-1.47C97.76,37.28,97.54,37.01,97.27,36.85z M104.8,37.06c-0.41-0.31-0.98-0.46-1.7-0.46
			c-0.6,0-1.12,0.11-1.57,0.34c-0.45,0.23-0.79,0.65-1.03,1.28c-0.24,0.63-0.36,1.55-0.36,2.76v3.08c0,1.19,0.12,2.1,0.35,2.75
			c0.23,0.65,0.57,1.09,1.01,1.34s0.97,0.37,1.58,0.37c1.09,0,1.84-0.31,2.25-0.92c0.41-0.61,0.61-1.41,0.61-2.4v-0.76h-1.04v0.86
			c0,0.73-0.09,1.27-0.28,1.62c-0.19,0.35-0.42,0.57-0.7,0.66c-0.28,0.09-0.56,0.14-0.84,0.14c-0.44,0-0.8-0.11-1.08-0.32
			c-0.28-0.21-0.48-0.58-0.61-1.1c-0.13-0.52-0.19-1.24-0.19-2.16V42.3h4.74v-1.1c0-1.11-0.09-2-0.26-2.67
			C105.51,37.85,105.21,37.36,104.8,37.06z M104.9,41.66h-3.7v-0.88c0-0.92,0.07-1.62,0.2-2.11c0.13-0.49,0.34-0.82,0.63-1
			c0.29-0.18,0.64-0.27,1.07-0.27c0.55,0,0.95,0.14,1.2,0.41c0.25,0.27,0.42,0.66,0.49,1.16c0.07,0.5,0.11,1.1,0.11,1.79V41.66z
			 M111.88,36.66c-0.45,0-0.94,0.14-1.45,0.41c-0.51,0.27-0.94,0.7-1.29,1.27v-1.56h-1.06v11.56h1.06V39.2
			c0.29-0.48,0.65-0.85,1.07-1.1c0.42-0.25,0.9-0.38,1.43-0.38c0.07,0,0.14,0,0.23,0.01c0.09,0.01,0.16,0.02,0.21,0.05v-1.1
			c-0.04-0.01-0.08-0.02-0.11-0.02C111.94,36.66,111.91,36.66,111.88,36.66z M118.93,46.93c-0.01-0.3-0.01-0.5-0.01-0.61V40.5
			c0-1.37-0.19-2.37-0.58-2.98c-0.39-0.61-1.07-0.92-2.04-0.92c-1.05,0-1.8,0.27-2.25,0.81c-0.45,0.54-0.67,1.36-0.67,2.47h1.04
			v-0.3c0-0.61,0.09-1.08,0.27-1.39c0.18-0.31,0.41-0.52,0.69-0.63c0.28-0.11,0.57-0.16,0.88-0.16c0.4,0,0.72,0.09,0.95,0.28
			c0.23,0.19,0.4,0.51,0.5,0.98c0.1,0.47,0.15,1.12,0.15,1.96v0.82c-0.99,0.47-1.79,0.88-2.41,1.23c-0.62,0.35-1.1,0.69-1.43,1.01
			c-0.33,0.32-0.56,0.66-0.69,1.03c-0.13,0.37-0.19,0.8-0.19,1.29c0,0.49,0.1,0.93,0.29,1.31c0.19,0.38,0.46,0.68,0.81,0.89
			c0.35,0.21,0.75,0.32,1.22,0.32c0.59,0,1.09-0.17,1.52-0.5c0.43-0.33,0.73-0.74,0.9-1.22c0.01,0.13,0.04,0.35,0.08,0.66
			c0.04,0.31,0.07,0.6,0.1,0.88h0.92c-0.01-0.08-0.02-0.26-0.03-0.54C118.94,47.52,118.94,47.23,118.93,46.93z M117.86,46.02
			c-0.13,0.28-0.31,0.54-0.52,0.79c-0.21,0.25-0.45,0.45-0.72,0.6c-0.27,0.15-0.57,0.23-0.9,0.23c-0.37,0-0.72-0.13-1.04-0.38
			c-0.32-0.25-0.48-0.73-0.48-1.42c0-0.43,0.06-0.79,0.18-1.09c0.12-0.3,0.32-0.57,0.59-0.81c0.27-0.24,0.65-0.49,1.12-0.76
			c0.47-0.27,1.06-0.59,1.77-0.96V46.02z M122.82,33.08h-1.06v3.7h-1.52v0.7h1.52v8.58c0,0.45,0.04,0.86,0.12,1.22
			s0.25,0.65,0.52,0.86c0.27,0.21,0.67,0.32,1.2,0.32c0.16,0,0.34-0.01,0.54-0.03c0.2-0.02,0.38-0.05,0.54-0.09v-0.82
			c-0.13,0.03-0.28,0.05-0.43,0.07c-0.15,0.02-0.3,0.03-0.43,0.03c-0.43,0-0.7-0.13-0.82-0.38c-0.12-0.25-0.18-0.69-0.18-1.32v-8.44
			h1.96v-0.7h-1.96V33.08z M130.79,37.1c-0.42-0.33-1.02-0.5-1.79-0.5c-0.76,0-1.35,0.17-1.77,0.5c-0.42,0.33-0.71,0.83-0.88,1.48
			c-0.17,0.65-0.25,1.46-0.25,2.42v3.12c0,0.96,0.08,1.77,0.25,2.42c0.17,0.65,0.46,1.15,0.88,1.48c0.42,0.33,1.01,0.5,1.77,0.5
			c0.77,0,1.37-0.17,1.79-0.5c0.42-0.33,0.71-0.83,0.88-1.48c0.17-0.65,0.25-1.46,0.25-2.42V41c0-0.97-0.08-1.78-0.25-2.43
			C131.5,37.92,131.21,37.43,130.79,37.1z M130.86,44.16c0,0.73-0.04,1.37-0.11,1.9c-0.07,0.53-0.24,0.94-0.51,1.23
			c-0.27,0.29-0.68,0.43-1.24,0.43s-0.97-0.14-1.23-0.43c-0.26-0.29-0.43-0.7-0.5-1.23c-0.07-0.53-0.11-1.17-0.11-1.9v-3.2
			c0-0.75,0.04-1.38,0.11-1.91c0.07-0.53,0.24-0.93,0.5-1.22c0.26-0.29,0.67-0.43,1.23-0.43s0.97,0.14,1.24,0.43
			c0.27,0.29,0.44,0.69,0.51,1.22c0.07,0.53,0.11,1.16,0.11,1.91V44.16z M138.01,36.66c-0.03,0-0.06,0-0.09,0
			c-0.45,0-0.94,0.14-1.45,0.41c-0.51,0.27-0.94,0.7-1.29,1.27v-1.56h-1.06v11.56h1.06V39.2c0.29-0.48,0.65-0.85,1.07-1.1
			c0.42-0.25,0.9-0.38,1.43-0.38c0.07,0,0.14,0,0.23,0.01c0.09,0.01,0.16,0.02,0.21,0.05v-1.1
			C138.08,36.66,138.04,36.66,138.01,36.66z"/>
	</g>
</g>
<g id="PK_app_logo-PK">
	<g>
		<path class="PK_app_logo-color-primary" d="M3.53,31.13c0.42-0.86,0.84-1.71,1.27-2.57v0H3.89c-0.4,0.83-0.79,1.67-1.19,2.5h0v-2.5H1.62
			c-0.26,0-0.52-0.01-0.73,0.05c-0.07,0.02-0.13,0.04-0.19,0.06c-0.22,0.09-0.38,0.24-0.5,0.43c-0.08,0.13-0.13,0.28-0.17,0.46
			c-0.01,0.07-0.02,0.14-0.03,0.21c0,0.03,0,0.07-0.01,0.1c0,0.03,0,0.05,0,0.08c0,0.05,0,0.11,0,0.16v0.53c0,0.05,0,0.1,0,0.15
			c0,0.02,0,0.05,0,0.07c0.01,0.03,0,0.06,0.01,0.09c0,0.03,0.01,0.07,0.01,0.1c0.01,0.04,0.02,0.09,0.02,0.13
			c0.02,0.08,0.04,0.16,0.07,0.24c0.15,0.37,0.4,0.58,0.81,0.68c0.24,0.06,0.56,0.04,0.86,0.04v2.16H2.7v-1.78
			c0.09-0.17,0.19-0.35,0.28-0.52h0c0.3,0.77,0.59,1.53,0.89,2.3H4.8C4.38,33.26,3.95,32.19,3.53,31.13z M1.78,31.33H1.44
			c-0.08,0-0.16,0-0.22-0.01c-0.07-0.02-0.12-0.04-0.17-0.08C1.03,31.22,1.01,31.2,1,31.18c-0.08-0.11-0.09-0.27-0.09-0.46v-0.64
			c0-0.25,0-0.43,0.11-0.57c0.04-0.06,0.11-0.09,0.19-0.11c0.02-0.01,0.05-0.01,0.08-0.01c0.02,0,0.05,0,0.07,0h0.42V31.33z"/>
	</g>
</g>
</svg>